<?xml version="1.0" encoding="utf-8"?>
<!-- Generator: Adobe Illustrator 27.0.0, SVG Export Plug-In . SVG Version: 6.00 Build 0)  -->
<svg version="1.1" id="Layer_1" xmlns="http://www.w3.org/2000/svg" xmlns:xlink="http://www.w3.org/1999/xlink" x="0px" y="0px"
	 viewBox="0 0 659 72" style="enable-background:new 0 0 659 72;" xml:space="preserve">
<style type="text/css">
	.st0{fill:none;}
	.st1{enable-background:new    ;}
</style>
<path d="M335.9,65.2V6.4h17.8v58.9h-17.8V65.2z M315.5,44.7V26.9h58.9v17.8C374.4,44.7,315.5,44.7,315.5,44.7z M335.9,65.2V6.4h17.8
	v58.9h-17.8V65.2z M315.5,44.7V26.9h58.9v17.8C374.4,44.7,315.5,44.7,315.5,44.7z"/>
<rect x="-2.6" y="4.5" class="st0" width="318.3" height="70.8"/>
<g class="st1">
	<path d="M0.5,54.2V17.4c0-4.2,1.3-7.5,3.8-10c2.5-2.5,5.9-3.8,10-3.8h29.9v8.7l-4.1,4.1H19.8c-3.7,0-5.5,1.8-5.5,5.5v27.6
		c0,3.7,1.8,5.5,5.5,5.5h24.4V68H14.3c-4.2,0-7.5-1.3-10-3.8C1.8,61.7,0.5,58.4,0.5,54.2z"/>
	<path d="M53.4,68V3.6h34c4.2,0,7.5,1.3,10,3.8c2.5,2.5,3.8,5.9,3.8,10v13.8c0,4.2-1.5,7.4-4.6,9.8c-1.4,1-2.9,1.8-4.6,2.2
		l10.6,17.9V68H89.7L78.2,45h-11v23H53.4z M67.2,32.1h14.7c3.7,0,5.5-1.8,5.5-5.5V22c0-3.7-1.8-5.5-5.5-5.5H67.2V32.1z"/>
	<path d="M111.8,68V3.6h41.9v8.7l-4.1,4.1h-23.9v12.9h18.9v12.4h-18.9v13.3h28.1V68H111.8z"/>
	<path d="M157.8,68v-6.4l18.4-58h17.5l18.4,58V68h-13.3l-3.2-12.9h-21.2L171.2,68H157.8z M177.6,43.2h14.7L185.4,16h-0.9L177.6,43.2
		z"/>
	<path d="M227.3,68V16.5h-17.5V3.6h48.8v8.7l-4.1,4.1h-13.3V68H227.3z"/>
</g>
<rect x="378.2" y="4.5" class="st0" width="318.3" height="70.8"/>
<g class="st1">
	<path d="M385.3,54.2V17.4c0-4.2,1.3-7.5,3.8-10s5.9-3.8,10-3.8H429v8.7l-4.1,4.1h-20.2c-3.7,0-5.5,1.8-5.5,5.5v27.6
		c0,3.7,1.8,5.5,5.5,5.5H429v13h-29.9c-4.2,0-7.5-1.3-10-3.8C386.6,61.7,385.3,58.4,385.3,54.2z"/>
	<path d="M435.9,55.1V16.5c0-4.2,1.3-7.5,3.8-10s5.9-3.8,10-3.8h21.6c4.2,0,7.5,1.3,10,3.8s3.8,5.9,3.8,10v38.6
		c0,4.2-1.3,7.5-3.8,10s-5.9,3.8-10,3.8h-21.6c-4.2,0-7.5-1.3-10-3.8C437.2,62.6,435.9,59.3,435.9,55.1z M455.2,56h10.6
		c3.7,0,5.5-1.8,5.5-5.5V21.1c0-3.7-1.8-5.5-5.5-5.5h-10.6c-3.7,0-5.5,1.8-5.5,5.5v29.4C449.7,54.2,451.5,56,455.2,56z"/>
	<path d="M496.2,68V3.6h34.5c4.2,0,7.5,1.3,10,3.8s3.8,5.9,3.8,10v36.8c0,4.2-1.3,7.5-3.8,10s-5.9,3.8-10,3.8H496.2z M510,55.1h15.2
		c3.7,0,5.5-1.8,5.5-5.5V22c0-3.7-1.8-5.5-5.5-5.5H510V55.1z"/>
	<path d="M555.5,68V3.6h41.9v8.7l-4.1,4.1h-23.9v12.9h18.9v12.4h-18.9V55h28.1v13H555.5z"/>
	<path d="M265.9,68.5V4h41.9v8.7l-4.1,4.1h-23.9v12.9h18.9v12.4h-18.9v13.3h28.1v12.9h-42V68.5z"/>
</g>
</svg>
